<?xml version="1.0" encoding="UTF-8"?>
<svg width="60px" height="60px" viewBox="0 0 60 60" version="1.1" xmlns="http://www.w3.org/2000/svg" xmlns:xlink="http://www.w3.org/1999/xlink">
    <!-- Generator: Sketch 51.3 (57544) - http://www.bohemiancoding.com/sketch -->
    <title>paper-plane</title>
    <desc>Created with Sketch.</desc>
    <defs></defs>
    <g id="Recargas-propuesta" stroke="none" stroke-width="1" fill="none" fill-rule="evenodd">
        <g id="paper-plane" fill="#B3B3B3" fill-rule="nonzero">
            <path d="M59.4161906,0.153558948 C59.0552587,-0.0544105328 58.6113553,-0.0509054292 58.2537793,0.162672217 L37.0475546,12.8235738 C36.4974198,13.152002 36.3151602,13.8684452 36.6404502,14.4238873 C36.9656245,14.9792125 37.675222,15.1632305 38.2254724,14.8349191 L53.440621,5.75097574 L25.1000027,35.4407222 L11.0043332,31.0866825 L29.3998253,20.1040245 C29.94996,19.7754795 30.1322196,19.0590363 29.8069296,18.5035942 C29.4817553,17.9482689 28.7720422,17.7640173 28.2219074,18.0925624 L7.56824755,30.4234 C7.17364101,30.6590598 6.95388799,31.1075963 7.00816085,31.567349 C7.06243372,32.0271018 7.38031764,32.4110275 7.81866648,32.5464413 L24.6523962,37.7461457 L32.0789838,51.3942013 C32.0867371,51.4083385 32.0947218,51.4202559 32.1029379,51.430888 C32.2268745,51.6395585 32.4126057,51.8100234 32.6442779,51.9084 C32.7892756,51.9699729 32.9416793,52 33.0930416,52 C33.389633,52 33.6815955,51.8847989 33.9020429,51.667132 L42.4415135,43.2408629 L58.5041982,48.2024539 C58.6152898,48.2366871 58.7292744,48.2536284 58.8426804,48.2536284 C59.0875447,48.2536284 59.3294003,48.1751141 59.5309853,48.0245115 C59.8259565,47.8041573 60,47.4556332 60,47.0852606 L60,1.16840328 C60,0.748842378 59.7771225,0.361411592 59.4161906,0.153558948 Z M32.1420514,38.4662108 C32.0080472,38.6616787 31.9361848,38.8937166 31.9361848,39.1314794 L31.9361848,46.2785025 L26.8649701,36.9590162 L49.3055842,13.4502863 L32.1420514,38.4662108 Z M34.2505927,48.0560574 L34.2505927,40.7108791 L39.9197347,42.4620289 L34.2505927,48.0560574 Z M57.6855922,45.5059777 L34.9466508,38.4822174 L57.6855922,5.33994392 L57.6855922,45.5059777 Z" id="Shape"></path>
            <path d="M19.664112,40.3358903 C19.2161465,39.8880366 18.4901811,39.8880366 18.042101,40.3358903 L7.33588805,51.042174 C6.88803732,51.4900277 6.88803732,52.2162274 7.33588805,52.6641957 C7.55998544,52.8880652 7.85346816,53 8.14695088,53 C8.4404336,53 8.73391632,52.8880652 8.95789903,52.6640811 L19.664112,41.9577973 C20.1119627,41.5100583 20.1119627,40.7838587 19.664112,40.3358903 Z" id="Shape"></path>
            <path d="M4.65944371,55.3403703 C4.20525239,54.8865239 3.46919732,54.8865239 3.01500599,55.3404866 L0.340556286,58.0149596 C-0.113518762,58.4690386 -0.113518762,59.2053327 0.340556286,59.659528 C0.567651949,59.8865093 0.865213549,60 1.16277515,60 C1.46033675,60 1.75789835,59.886393 1.98499401,59.6594117 L4.65944371,56.9849386 C5.11351876,56.5308596 5.11351876,55.7945656 4.65944371,55.3403703 Z" id="Shape"></path>
            <path d="M15.7069,58.293 C15.521,58.107 15.263,58 15,58 C14.7359,58 14.479,58.107 14.293,58.293 C14.107,58.479 14,58.736 14,59 C14,59.263 14.1069,59.521 14.293,59.707 C14.479,59.893 14.737,60 15,60 C15.263,60 15.521,59.893 15.7069,59.707 C15.8929,59.521 16,59.263 16,59 C16,58.736 15.893,58.479 15.7069,58.293 Z" id="Shape"></path>
            <path d="M24.6626131,49.3373905 C24.2129944,48.8875365 23.4837894,48.8875365 23.0334795,49.3373905 L17.3373869,55.0334295 C16.8875377,55.4832835 16.8875377,56.2127267 17.3373869,56.6625807 C17.5623691,56.8875653 17.8571614,57 18.1519537,57 C18.446746,57 18.7415383,56.8874501 18.9665205,56.6625807 L24.6626131,50.9665417 C25.1124623,50.5166877 25.1124623,49.7872445 24.6626131,49.3373905 Z" id="Shape"></path>
            <path d="M44.6632629,48.3366485 C44.2141651,47.8877838 43.4863645,47.8877838 43.0372667,48.3366485 L37.3367371,54.0371371 C36.8877543,54.4861167 36.8877543,55.214142 37.3367371,55.6632366 C37.561286,55.8876689 37.8555106,56 38.1497352,56 C38.4439598,56 38.7381844,55.8876689 38.9627333,55.6632366 L44.6632629,49.9627479 C45.1122457,49.5137683 45.1122457,48.785743 44.6632629,48.3366485 Z" id="Shape"></path>
            <path d="M33.707,15.293 C33.521,15.107 33.263,15 33,15 C32.737,15 32.479,15.107 32.293,15.293 C32.1071,15.479 32,15.737 32,16.001 C32,16.264 32.107,16.521 32.293,16.707 C32.479,16.894 32.737,17 33,17 C33.263,17 33.521,16.894 33.707,16.707 C33.8929,16.521 34,16.264 34,16.001 C34,15.737 33.893,15.479 33.707,15.293 Z" id="Shape"></path>
        </g>
    </g>
</svg>